<?xml version="1.0" encoding="UTF-8" standalone="no"?>
<svg width="99px" height="27px" viewBox="0 0 99 27" version="1.1" xmlns="http://www.w3.org/2000/svg" xmlns:xlink="http://www.w3.org/1999/xlink">
    <!-- Generator: sketchtool 40.3 (33839) - http://www.bohemiancoding.com/sketch -->
    <title>FABE64C3-A94D-41BF-9083-07FA879EC33A</title>
    <desc>Created with sketchtool.</desc>
    <defs>
        <polygon id="path-1" points="0 26.4879237 98.6324211 26.4879237 98.6324211 0.000213157895 0 0.000213157895"></polygon>
    </defs>
    <g id="Desktop/Home/Gratuit" stroke="none" stroke-width="1" fill="none" fill-rule="evenodd">
        <g id="desktop-homepage-adrenaline-a" transform="translate(-233.000000, -43.000000)">
            <g id="Page-1" transform="translate(233.000000, 43.000000)">
                <path d="M32.8604921,13.6891421 C32.8604921,12.2453526 32.4860447,11.1653526 31.7378605,10.4633526 C30.9896763,9.75566842 29.9210447,9.40395789 28.5348079,9.40395789 L25.4454395,9.40395789 L25.4454395,18.4077474 L28.5348079,18.4077474 C29.2829921,18.4077474 29.9309921,18.3004579 30.4724132,18.0915632 C31.0244921,17.8826684 31.4714132,17.5778526 31.8252553,17.1785368 C32.1776763,16.7778 32.4384395,16.2854053 32.6068342,15.7034842 C32.7745184,15.1208526 32.8604921,14.4479842 32.8604921,13.6891421 L32.8604921,13.6891421 Z M31.4920184,15.2743263 C31.3797553,15.6651158 31.2340974,15.9912474 31.0578868,16.2505895 C30.8788342,16.5120632 30.6820184,16.7174053 30.4582026,16.8694579 C30.2365184,17.0186684 30.0098605,17.1351947 29.7824921,17.2140632 C29.5565447,17.2950632 29.3412553,17.3448 29.1387553,17.3668263 C28.9376763,17.3874316 28.7692816,17.4002211 28.6349921,17.4002211 L26.6433868,17.4002211 L26.6433868,10.4121947 L28.6598605,10.4121947 C29.2162026,10.4121947 29.6823079,10.4917737 30.0588868,10.6516421 C30.4404395,10.8108 30.7495184,11.0381684 30.9896763,11.3316158 C31.2269921,11.6279053 31.3975184,11.9860105 31.5048079,12.4087737 C31.6085447,12.8358 31.6589921,13.3161158 31.6589921,13.8546947 C31.6589921,14.4089053 31.6057026,14.8828263 31.4920184,15.2743263 L31.4920184,15.2743263 Z" id="Fill-1" fill="#EAEEF6"></path>
                <path d="M32.8604921,13.6891421 C32.8604921,12.2453526 32.4860447,11.1653526 31.7378605,10.4633526 C30.9896763,9.75566842 29.9210447,9.40395789 28.5348079,9.40395789 L25.4454395,9.40395789 L25.4454395,18.4077474 L28.5348079,18.4077474 C29.2829921,18.4077474 29.9309921,18.3004579 30.4724132,18.0915632 C31.0244921,17.8826684 31.4714132,17.5778526 31.8252553,17.1785368 C32.1776763,16.7778 32.4384395,16.2854053 32.6068342,15.7034842 C32.7745184,15.1208526 32.8604921,14.4479842 32.8604921,13.6891421 M31.4920184,15.2743263 C31.3797553,15.6651158 31.2340974,15.9912474 31.0578868,16.2505895 C30.8788342,16.5120632 30.6820184,16.7174053 30.4582026,16.8694579 C30.2365184,17.0186684 30.0098605,17.1351947 29.7824921,17.2140632 C29.5565447,17.2950632 29.3412553,17.3448 29.1387553,17.3668263 C28.9376763,17.3874316 28.7692816,17.4002211 28.6349921,17.4002211 L26.6433868,17.4002211 L26.6433868,10.4121947 L28.6598605,10.4121947 C29.2162026,10.4121947 29.6823079,10.4917737 30.0588868,10.6516421 C30.4404395,10.8108 30.7495184,11.0381684 30.9896763,11.3316158 C31.2269921,11.6279053 31.3975184,11.9860105 31.5048079,12.4087737 C31.6085447,12.8358 31.6589921,13.3161158 31.6589921,13.8546947 C31.6589921,14.4089053 31.6057026,14.8828263 31.4920184,15.2743263" id="Fill-3" fill="#EAEEF6"></path>
                <path d="M40.4528211,15.5642921 C40.5039789,15.7618184 40.5444789,15.9700026 40.5792947,16.1881342 C40.6219263,16.4069763 40.6453737,16.6293711 40.6553211,16.8546079 C40.6624263,17.0833974 40.6709526,17.2951342 40.6787684,17.4926605 C40.6901368,17.6901868 40.7079,17.86995 40.7370316,18.0283974 C40.7661632,18.1882658 40.8230053,18.3147395 40.9054263,18.4071079 L42.2419263,18.4071079 C42.1182947,18.2564763 42.0209526,18.0838184 41.9598474,17.8855816 C41.8959,17.6859237 41.8490053,17.47845 41.8141895,17.2596079 C41.7807947,17.0400553 41.7587684,16.8183711 41.7516632,16.5924237 C41.7431368,16.3643447 41.7324789,16.1405289 41.7125842,15.9216868 C41.6862947,15.7063974 41.6529,15.4946605 41.6045842,15.2950026 C41.5605316,15.0910816 41.4894789,14.9070553 41.3921368,14.7443447 C41.2926632,14.5780816 41.1647684,14.4388184 41.0006368,14.3215816 C40.8372158,14.2043447 40.6261895,14.1190816 40.3640053,14.0707658 L40.3640053,14.0437658 C40.9111105,13.8924237 41.3075842,13.6110553 41.5576895,13.1982395 C41.8028211,12.7875553 41.9278737,12.3065289 41.9278737,11.7608447 C41.9278737,11.0290026 41.6862947,10.4548974 41.2038474,10.0321342 C40.7192684,9.61221316 40.0506632,9.40402895 39.1916368,9.40402895 L34.9547684,9.40402895 L34.9547684,18.4071079 L36.1505842,18.4071079 L36.1505842,14.5610289 L39.0772421,14.5610289 C39.3650053,14.5610289 39.5966368,14.6065026 39.7785316,14.6924763 C39.9590053,14.7805816 40.1046632,14.8985289 40.2140842,15.0477395 C40.3220842,15.1933974 40.4016632,15.3653447 40.4528211,15.5642921 M39.4438737,13.4881342 C39.1916368,13.5307658 38.9266105,13.5513711 38.6487947,13.5513711 L36.1505842,13.5513711 L36.1505842,10.4122658 L39.1276895,10.4122658 C39.6925579,10.4122658 40.1018211,10.5557921 40.3526368,10.8385816 C40.6055842,11.1256342 40.7320579,11.4958184 40.7320579,11.9512658 C40.7320579,12.2795289 40.6737947,12.5452658 40.5608211,12.7513184 C40.4471368,12.9566605 40.2943737,13.1207921 40.1060842,13.2415816 C39.9185053,13.3645026 39.6954,13.4476342 39.4438737,13.4881342" id="Fill-5" fill="#EAEEF6"></path>
                <path d="M40.4528211,15.5642921 C40.5039789,15.7618184 40.5444789,15.9700026 40.5792947,16.1881342 C40.6219263,16.4069763 40.6453737,16.6293711 40.6553211,16.8546079 C40.6624263,17.0833974 40.6709526,17.2951342 40.6787684,17.4926605 C40.6901368,17.6901868 40.7079,17.86995 40.7370316,18.0283974 C40.7661632,18.1882658 40.8230053,18.3147395 40.9054263,18.4071079 L42.2419263,18.4071079 C42.1182947,18.2564763 42.0209526,18.0838184 41.9598474,17.8855816 C41.8959,17.6859237 41.8490053,17.47845 41.8141895,17.2596079 C41.7807947,17.0400553 41.7587684,16.8183711 41.7516632,16.5924237 C41.7431368,16.3643447 41.7324789,16.1405289 41.7125842,15.9216868 C41.6862947,15.7063974 41.6529,15.4946605 41.6045842,15.2950026 C41.5605316,15.0910816 41.4894789,14.9070553 41.3921368,14.7443447 C41.2926632,14.5780816 41.1647684,14.4388184 41.0006368,14.3215816 C40.8372158,14.2043447 40.6261895,14.1190816 40.3640053,14.0707658 L40.3640053,14.0437658 C40.9111105,13.8924237 41.3075842,13.6110553 41.5576895,13.1982395 C41.8028211,12.7875553 41.9278737,12.3065289 41.9278737,11.7608447 C41.9278737,11.0290026 41.6862947,10.4548974 41.2038474,10.0321342 C40.7192684,9.61221316 40.0506632,9.40402895 39.1916368,9.40402895 L34.9547684,9.40402895 L34.9547684,18.4071079 L36.1505842,18.4071079 L36.1505842,14.5610289 L39.0772421,14.5610289 C39.3650053,14.5610289 39.5966368,14.6065026 39.7785316,14.6924763 C39.9590053,14.7805816 40.1046632,14.8985289 40.2140842,15.0477395 C40.3220842,15.1933974 40.4016632,15.3653447 40.4528211,15.5642921 M39.4438737,13.4881342 C39.1916368,13.5307658 38.9266105,13.5513711 38.6487947,13.5513711 L36.1505842,13.5513711 L36.1505842,10.4122658 L39.1276895,10.4122658 C39.6925579,10.4122658 40.1018211,10.5557921 40.3526368,10.8385816 C40.6055842,11.1256342 40.7320579,11.4958184 40.7320579,11.9512658 C40.7320579,12.2795289 40.6737947,12.5452658 40.5608211,12.7513184 C40.4471368,12.9566605 40.2943737,13.1207921 40.1060842,13.2415816 C39.9185053,13.3645026 39.6954,13.4476342 39.4438737,13.4881342" id="Fill-7" fill="#EAEEF6"></path>
                <polygon id="Fill-9" fill="#EAEEF6" points="48.8056974 7.25255526 47.6660132 7.25255526 46.8254605 8.58408158 47.6304868 8.58408158"></polygon>
                <polygon id="Fill-11" fill="#EAEEF6" points="48.8056974 7.25255526 47.6660132 7.25255526 46.8254605 8.58408158 47.6304868 8.58408158"></polygon>
                <polygon id="Fill-13" fill="#EAEEF6" points="50.4834632 17.3999368 45.4252263 17.3999368 45.4252263 14.2828579 50.1047526 14.2828579 50.1047526 13.2760421 45.4252263 13.2760421 45.4252263 10.4126211 50.4429632 10.4126211 50.4429632 9.40367368 44.2258579 9.40367368 44.2258579 18.4074632 50.4834632 18.4074632"></polygon>
                <polygon id="Fill-15" fill="#EAEEF6" points="50.4834632 17.3999368 45.4252263 17.3999368 45.4252263 14.2828579 50.1047526 14.2828579 50.1047526 13.2760421 45.4252263 13.2760421 45.4252263 10.4126211 50.4429632 10.4126211 50.4429632 9.40367368 44.2258579 9.40367368 44.2258579 18.4074632 50.4834632 18.4074632"></polygon>
                <polygon id="Fill-17" fill="#EAEEF6" points="53.6863737 11.1814816 53.7084 11.1814816 58.4156368 18.4075342 59.7244263 18.4075342 59.7244263 9.40374474 58.5904263 9.40374474 58.5904263 16.7051132 58.5655579 16.7051132 53.8235053 9.40374474 52.5509526 9.40374474 52.5509526 18.4075342 53.6863737 18.4075342"></polygon>
                <polygon id="Fill-19" fill="#EAEEF6" points="53.6863737 11.1814816 53.7084 11.1814816 58.4156368 18.4075342 59.7244263 18.4075342 59.7244263 9.40374474 58.5904263 9.40374474 58.5904263 16.7051132 58.5655579 16.7051132 53.8235053 9.40374474 52.5509526 9.40374474 52.5509526 18.4075342 53.6863737 18.4075342"></polygon>
                <path d="M64.7439395,9.40374474 L61.2275447,18.4075342 L62.4610184,18.4075342 L63.4699658,15.6947447 L67.2805184,15.6947447 L68.2631763,18.4075342 L69.5883079,18.4075342 L66.06765,9.40374474 L64.7439395,9.40374474 Z M63.8486763,14.6872184 L65.3741763,10.4872974 L65.4004658,10.4872974 L66.8989658,14.6872184 L63.8486763,14.6872184 Z" id="Fill-21" fill="#EAEEF6"></path>
                <path d="M64.7439395,9.40374474 L61.2275447,18.4075342 L62.4610184,18.4075342 L63.4699658,15.6947447 L67.2805184,15.6947447 L68.2631763,18.4075342 L69.5883079,18.4075342 L66.06765,9.40374474 L64.7439395,9.40374474 Z M63.8486763,14.6872184 L65.3741763,10.4872974 L65.4004658,10.4872974 L66.8989658,14.6872184 L63.8486763,14.6872184 Z" id="Fill-23" fill="#EAEEF6"></path>
                <polygon id="Fill-25" fill="#EAEEF6" points="77.0685158 17.3999368 72.3001737 17.3999368 72.3001737 9.40367368 71.1015158 9.40367368 71.1015158 18.4074632 77.0685158 18.4074632"></polygon>
                <polygon id="Fill-27" fill="#EAEEF6" points="77.0685158 17.3999368 72.3001737 17.3999368 72.3001737 9.40367368 71.1015158 9.40367368 71.1015158 18.4074632 77.0685158 18.4074632"></polygon>
                <mask id="mask-2" fill="white">
                    <use xlink:href="#path-1"></use>
                </mask>
                <g id="Clip-30"></g>
                <polygon id="Fill-29" fill="#EAEEF6" mask="url(#mask-2)" points="78.7973684 18.4078184 79.9953158 18.4078184 79.9953158 9.40402895 78.7973684 9.40402895"></polygon>
                <polygon id="Fill-31" fill="#EAEEF6" mask="url(#mask-2)" points="78.7973684 18.4078184 79.9953158 18.4078184 79.9953158 9.40402895 78.7973684 9.40402895"></polygon>
                <polygon id="Fill-32" fill="#EAEEF6" mask="url(#mask-2)" points="89.8080395 18.4074632 89.8080395 9.40367368 88.6697763 9.40367368 88.6697763 16.7050421 88.6449079 16.7050421 83.9042763 9.40367368 82.6303026 9.40367368 82.6303026 18.4074632 83.7671447 18.4074632 83.7671447 11.1814105 83.7905921 11.1814105 88.4964079 18.4074632"></polygon>
                <polygon id="Fill-33" fill="#EAEEF6" mask="url(#mask-2)" points="89.8080395 18.4074632 89.8080395 9.40367368 88.6697763 9.40367368 88.6697763 16.7050421 88.6449079 16.7050421 83.9042763 9.40367368 82.6303026 9.40367368 82.6303026 18.4074632 83.7671447 18.4074632 83.7671447 11.1814105 83.7905921 11.1814105 88.4964079 18.4074632"></polygon>
                <polygon id="Fill-34" fill="#EAEEF6" mask="url(#mask-2)" points="93.5771684 17.3999368 93.5771684 14.2828579 98.2566947 14.2828579 98.2566947 13.2760421 93.5771684 13.2760421 93.5771684 10.4126211 98.5963263 10.4126211 98.5963263 9.40367368 92.3785105 9.40367368 92.3785105 18.4074632 98.6325632 18.4074632 98.6325632 17.3999368"></polygon>
                <polygon id="Fill-35" fill="#EAEEF6" mask="url(#mask-2)" points="93.5771684 17.3999368 93.5771684 14.2828579 98.2566947 14.2828579 98.2566947 13.2760421 93.5771684 13.2760421 93.5771684 10.4126211 98.5963263 10.4126211 98.5963263 9.40367368 92.3785105 9.40367368 92.3785105 18.4074632 98.6325632 18.4074632 98.6325632 17.3999368"></polygon>
                <path d="M18.9011368,4.28987368 L15.6959526,16.3830316 C15.5815579,16.8711632 15.4117421,17.5887947 15.4117421,18.0485053 C15.4117421,18.5096368 15.8977421,18.8499789 16.4725579,18.8499789 L17.2470316,18.8499789 C17.4204,18.8499789 17.5077947,18.9387947 17.4751105,19.1384526 L17.3891368,19.6557158 C17.3614263,19.8290842 17.3052947,19.9150579 17.0445316,19.9150579 C16.7027684,19.9150579 15.5524263,19.8290842 13.6027421,19.8290842 C11.5947947,19.8290842 10.7066368,19.9150579 10.2440842,19.9150579 C9.98616316,19.9150579 9.93074211,19.7964 9.95845263,19.6272947 L10.0735579,19.0794789 C10.1019789,18.9686368 10.1581105,18.8499789 10.3016368,18.8499789 L10.8480316,18.8499789 C11.9372684,18.8499789 12.6847421,18.6510316 13.2588474,16.4974263 L14.6919789,11.1905053 L9.58542632,11.1905053 L5.5674,16.2416368 C4.96558421,17.0139789 4.39218947,17.7628737 4.39218947,18.1643211 C4.39218947,18.5941895 4.76379474,18.8499789 5.39687368,18.8499789 L6.42926842,18.8499789 C6.57066316,18.8499789 6.68718947,18.9068211 6.62892632,19.1384526 L6.51524211,19.6834263 C6.48753158,19.8290842 6.42926842,19.9150579 6.22534737,19.9150579 C5.94113684,19.9150579 4.70553158,19.8290842 2.46879474,19.8290842 C1.36250526,19.8290842 0.564584211,19.8546632 0.0267157895,19.8802421 L11.4711632,26.4881368 L22.9411895,19.8660316 L22.9411895,6.6204 L18.9011368,4.28987368 Z" id="Fill-36" fill="#EAEEF6" mask="url(#mask-2)"></path>
                <polygon id="Fill-37" fill="#EAEEF6" mask="url(#mask-2)" points="10.3304132 10.1861053 15.0070974 10.1861053 17.0406237 3.21584211 16.2881763 2.781"></polygon>
                <path d="M3.24319737,16.7557026 L15.38325,2.25812368 L14.78925,1.91493947 L11.4696711,7.10526316e-05 L0.000355263157,6.62075526 L0.000355263157,17.8904132 L0.000355263157,18.8418079 C1.15353947,18.7437553 2.27475,17.9152816 3.24319737,16.7557026" id="Fill-38" fill="#EAEEF6" mask="url(#mask-2)"></path>
            </g>
        </g>
    </g>
</svg>