<?xml version="1.0" encoding="UTF-8" standalone="no"?>
<svg xmlns:xlink="http://www.w3.org/1999/xlink" width="1740px" height="278px" viewBox="0 0 1740 278" version="1.1" xmlns="http://www.w3.org/2000/svg">
    <!-- Generator: Sketch 46.2 (44496) - http://www.bohemiancoding.com/sketch -->
    <title>Sport_et_Style_logo_black</title>
    <desc>Created with Sketch.</desc>
    <defs></defs>
    <g id="Charte" stroke="none" stroke-width="1" fill="none" fill-rule="evenodd">
        <g id="Sport_et_Style_logo_black" fill-rule="nonzero">
            <path d="M79.4,87.1 L62.1,81.7 C29.9,71.9 16.1,59.6 16.1,40.8 C16.1,22.6 36.1,8.3 58.5,8.3 C91,8.3 111.9,32.8 116.7,89.2 L123,89.2 L123,0.9 L121.5,0.9 L103.6,22.7 C92.9,9 77,2.1 58.5,2.1 C28.1,2.1 1.5,25.7 1.5,63.6 C1.5,94.9 18.8,120.9 54.6,131.6 L69.8,136.1 C103.8,146.5 121.1,155.5 121.1,180.6 C121.1,201.5 98.1,217.6 72.2,217.6 C23,217.6 14.3,185.7 6.6,120 L0.3,120 L0.3,226.2 L1.5,226.2 L21.2,204.7 C33.1,216.6 48.1,223.8 72.2,223.8 C105.3,223.8 137,199.9 137,156.3 C137,116.1 112.8,97.3 79.4,87.1" id="XMLID_25_" fill="#FFFFFF"></path>
            <path d="M275.5,156.4 C275.5,193.4 268.3,217.3 248,217.3 C228.3,217.3 210.7,194.3 210.7,148.1 L210.7,139.1 C210.7,92.8 228.3,69.9 248,69.9 C268.3,69.9 275.5,93.8 275.5,130.8 L275.5,156.4 Z M252.2,63.3 C232.5,63.3 220.3,74.3 212.5,92.8 L212.5,66.8 L147.1,66.8 L147.1,73.1 L174.3,73.1 L174.3,271.3 L147.1,271.3 L147.1,277.6 L251.5,277.6 L251.5,271.3 L212.4,271.3 L212.4,194.3 C220.2,212.8 232.4,223.8 252.1,223.8 C287,223.8 317.8,189.8 317.8,143.5 C317.8,97.3 287.1,63.3 252.2,63.3 L252.2,63.3 Z" id="Shape" fill="#FFFFFF"></path>
            <path d="M445.7,98.4 L477.6,98.4 C464.3,77.1 441.2,63.2 412.8,63.2 C367.4,63.2 335.5,98.7 335.5,143.5 C335.5,188.3 367.4,223.8 412.8,223.8 C440.7,223.8 463.6,210.3 477,189.5 L445.5,189.5 C440.8,209.5 430.2,218.2 412.8,218.2 C388.3,218.2 377.3,201.2 377.3,159.4 L377.3,127.8 C377.3,86 388.3,69 412.8,69 C430.5,68.9 441.1,77.8 445.7,98.4" id="XMLID_22_" fill="#FFFFFF"></path>
            <path d="M690.5,189.5 C698.1,212.1 717.6,223.8 741.7,223.8 C762.6,223.8 789.2,220.8 794.8,171.9 L788.5,171.9 C784.6,206.5 767.9,217.6 749.7,217.6 C735.2,217.6 728.4,208.9 726.1,189.5 L690.5,189.5 Z M534.3,214.6 L491.3,214.6 L491.3,220.9 L629.5,220.9 L629.5,214.6 L572.5,214.6 L572.5,189.5 L534.3,189.5 L534.3,214.6 Z M534.3,98.4 L571,98.4 L571,66.8 L491.3,66.8 L491.3,73.1 L534.3,73.1 L534.3,98.4 Z M725.3,73.1 L791.6,73.1 L791.6,66.8 L725.3,66.8 L725.3,9.2 L687.1,43.8 L687.1,66.8 L641.6,66.8 C637,64.4 631.8,63.2 627.1,63.2 C605.1,63.2 585.2,78.3 575.5,98.4 L582.5,98.4 C590.7,83.8 602.7,74.1 613.7,71.9 C611.6,74.3 606.5,79.1 606.5,88.6 C606.5,92.2 607.3,95.5 608.7,98.4 L652.6,98.4 C654,95.4 654.8,92.1 654.8,88.6 C654.8,82.1 652.7,77 649.4,73.1 L687,73.1 L687,98.4 L725.2,98.4 L725.2,73.1 L725.3,73.1 Z" id="Shape" fill="#FFFFFF"></path>
            <path d="M1462.3,66.9 L1394.6,66.9 L1394.6,73.2 L1434.6,73.2 L1392.8,177.7 L1347.1,73.2 L1376.3,73.2 L1376.3,66.9 L1296.6,66.9 L1286.1,66.9 L1230.3,66.9 L1230.3,9.3 L1192.1,43.9 L1192.1,66.9 L1146.1,66.9 L1146.1,0.9 L1144.6,0.9 L1126.7,22.7 C1116,9 1100.1,2.1 1081.6,2.1 C1051.2,2.1 1024.6,25.7 1024.6,63.6 C1024.6,94.9 1041.9,120.9 1077.7,131.6 L1092.9,136.1 C1126.9,146.5 1144.2,155.5 1144.2,180.6 C1144.2,201.5 1121.2,217.6 1095.2,217.6 C1046,217.6 1037.3,185.7 1029.5,120 L1023.2,120 L1023.2,226.2 L1024.4,226.2 L1044.1,204.7 C1056,216.6 1071,223.8 1095.1,223.8 C1128.2,223.8 1159.9,199.9 1159.9,156.3 C1159.9,116 1135.7,97.2 1102.3,87.1 L1085,81.7 C1052.8,71.9 1039,59.6 1039,40.8 C1039,22.6 1059,8.3 1081.4,8.3 C1113.9,8.3 1134.8,32.8 1139.6,89.2 L1145.9,89.2 L1145.9,73.1 L1191.9,73.1 L1191.9,167.1 C1191.9,204.4 1215.5,223.8 1246.5,223.8 C1267.4,223.8 1293.9,220.8 1299.6,171.9 L1293.3,171.9 C1289.4,206.5 1272.7,217.6 1254.5,217.6 C1236,217.6 1230,203.6 1230,171.3 L1230,73.1 L1296.3,73.1 L1304.3,73.1 L1372.3,226.8 L1365.4,243.8 L1312,243.8 L1297.4,277.5 L1359.2,277.5 L1441.3,73.1 L1461.9,73.1 L1461.9,66.9 L1462.3,66.9 Z" id="XMLID_17_" fill="#FFFFFF"></path>
            <polygon id="XMLID_16_" fill="#FFFFFF" points="1537.5 6 1444.7 6 1444.7 12.2 1499.3 12.2 1499.3 214.6 1444.7 214.6 1444.7 220.8 1592.1 220.8 1592.1 214.6 1537.5 214.6"></polygon>
            <path d="M1662.9,68.9 C1686.2,68.9 1697.5,85 1698.4,123.5 L1627.4,123.5 C1628.8,86.5 1639.9,68.9 1662.9,68.9 M1671.2,217.6 C1639,217.6 1627.3,197.9 1627.3,156.4 L1627.3,130.7 L1627.3,129.8 L1739.5,129.8 C1735.3,92.5 1707.3,63.3 1662.8,63.3 C1617.4,63.3 1585.5,98.8 1585.5,143.6 C1585.5,188.3 1618,223.9 1665.8,223.9 C1704.6,223.9 1730.8,204.2 1738.3,165.1 L1732,164.5 C1725.5,201.5 1698.1,217.6 1671.2,217.6" id="Shape" fill="#FFFFFF"></path>
            <rect id="XMLID_13_" fill="#FFFFFF" x="430.8" y="105.2" width="310.6" height="77.4"></rect>
            <polygon id="XMLID_12_" fill="#E20613" points="465.5 158 479.7 158 476.8 165.1 448.4 165.1 463 129.7 457.7 129.7 460.7 122.7 480.1 122.7"></polygon>
            <polygon id="XMLID_11_" fill="#E20613" points="705.5 122.7 691.3 122.7 688.4 129.8 693.7 129.8 679 165.2 707.5 165.2 710.4 158.1 696.1 158.1 700.5 147.4 714.8 147.4 717.7 140.4 703.4 140.4 707.9 129.8 722.1 129.8 725.1 122.7"></polygon>
            <polygon id="XMLID_10_" fill="#E20613" points="628.3 165.1 614.2 165.1 628.8 129.7 623.6 129.7 626.4 122.7 645.8 122.7"></polygon>
            <path d="M671.7,136.3 C671.3,137.3 669.7,141.2 669.7,141.2 C668,145.2 664.8,145.5 663.6,145.5 C661.9,145.5 659.2,145.5 659.2,145.5 L665.8,129.7 L667.9,129.7 C670.6,129.8 673.5,132 671.7,136.3 M672.2,122.7 L649.3,122.7 L646.4,129.7 L651.7,129.7 L637,165 L651.1,165 L656.3,152.4 L667.2,152.4 C673.9,152.4 681.3,147.3 684,140.3 C686.8,133.2 684.8,122.7 672.2,122.7" id="Shape" fill="#E20613"></path>
            <path d="M601.5,152.4 C599.8,156.6 597.8,157.9 595.2,157.9 C590.4,157.9 590.7,153.2 591.6,151 L603.3,122.7 L584.1,122.7 L581.3,129.7 L586.3,129.7 C586.3,129.7 583.9,136 579.6,146.1 C574,159.5 584.2,165.5 591.6,165.5 C601.5,165.5 606.5,162.2 610.2,153.3 C614.1,143.7 622.8,122.8 622.8,122.8 L613.9,122.8 C613.9,122.7 604.3,145.5 601.5,152.4" id="XMLID_7_" fill="#E20613"></path>
            <path d="M485.4,122.7 L482.5,129.8 L486.1,129.8 L482,139.7 C482,139.7 493.7,136.8 499.3,122.7 L485.4,122.7 Z" id="XMLID_6_" fill="#E20613"></path>
            <polygon id="XMLID_5_" fill="#E20613" points="535.3 129.8 538.2 122.7 525.8 122.7 527.2 119.1 518.4 119.1 516.9 122.7 504.7 122.7 501.8 129.8 507.1 129.8 492.4 165.1 520.8 165.1 523.7 158 509.5 158 513.9 147.4 528 147.4 531 140.4 516.8 140.4 521.2 129.8"></polygon>
            <path d="M563.5,136.2 C562.6,138.1 557.7,150.2 556.5,153.1 L554.4,150.1 L548.6,154.1 L551.2,157.8 C550.9,157.8 550.6,157.9 550.3,157.9 C546.6,157.9 545.2,154.6 546.6,151.2 C547.4,149.3 552.8,136.2 553.7,134 C554.6,131.8 556.7,129.7 559.7,129.7 C564.1,129.7 564.5,134 563.5,136.2 M570.6,126.5 C562.9,119.4 549.7,121.3 541.1,130.9 C532.5,140.5 531.7,154 539.3,161.2 C543.7,165.3 549.8,166.4 555.9,164.8 L558.9,169.1 L564.7,165.1 L562.5,162 C564.7,160.6 566.8,158.9 568.7,156.8 C577.5,147.2 578.3,133.6 570.6,126.5" id="Shape" fill="#E20613"></path>
            <path d="M896,217.6 C874.8,217.6 868.8,199.7 868.8,177.9 C868.8,159.7 877.8,137.6 891.8,124.8 L929.4,167.2 C929.4,197.6 916,217.6 896,217.6 L896,217.6 Z M936.6,100.6 L962.7,100.6 L977.2,66.9 L929.4,66.9 L929.4,156.4 L856.9,74.9 C839.9,55.8 841.1,43.9 862.9,43.9 L912.2,43.9 L928.5,6 L877.8,6 C848.3,6 834.2,21.2 834.2,40.6 C834.2,54 839.6,65.7 850.3,77.9 L864.3,93.7 C841.9,111 829.7,136.1 829.7,158.8 C829.7,195.5 854.5,223.9 891.2,223.9 C917.2,223.9 933.6,207.2 936.3,175 L976.9,221 L986.7,221 L936.6,164.6 L936.6,100.6 L936.6,100.6 Z" id="Shape" fill="#FFFFFF"></path>
        </g>
    </g>
</svg>
